<svg width="200" height="201" viewBox="0 0 200 201" fill="none" xmlns="http://www.w3.org/2000/svg">
<g clip-path="url(#clip0_1_312)">
<rect y="0.5" width="200" height="200" rx="100" fill="#B97C44"/>
<path fill-rule="evenodd" clip-rule="evenodd" d="M105.2 43.6655C105.2 42.1629 104.599 40.7219 103.531 39.6594C102.462 38.5969 101.012 38 99.5 38C97.9883 38 96.5384 38.5969 95.4695 39.6594C94.4005 40.7219 93.8 42.1629 93.8 43.6655V54.9964C92.2883 54.9964 90.8384 55.5933 89.7695 56.6558C88.7005 57.7183 88.1 59.1593 88.1 60.6619V72.752C87.2335 73.2492 86.514 73.9644 86.0137 74.8256C85.5134 75.6869 85.25 76.6638 85.25 77.6583V95.4138C84.3835 95.9111 83.664 96.6263 83.1637 97.4875C82.6634 98.3487 82.4 99.3257 82.4 100.32V117.317C80.8883 117.317 79.4385 117.913 78.3695 118.976C77.3005 120.038 76.7 121.479 76.7 122.982V151.309C73.5954 151.309 71 153.889 71 156.975C71 160.061 71 164 71 164H128C128 164 128 160.061 128 156.975C128 153.889 125.405 151.309 122.3 151.309V128.647C122.3 127.145 121.699 125.704 120.631 124.641C119.562 123.579 118.112 122.982 116.6 122.982V105.986C116.6 104.991 116.337 104.014 115.836 103.153C115.336 102.292 114.616 101.577 113.75 101.079V83.3237C113.75 82.3293 113.487 81.3523 112.986 80.4911C112.486 79.6299 111.766 78.9147 110.9 78.4174V60.6619C110.9 59.1593 110.299 57.7183 109.231 56.6558C108.162 55.5933 106.712 54.9964 105.2 54.9964V43.6655Z" fill="black" fill-opacity="0.7"/>
</g>
<defs>
<clipPath id="clip0_1_312">
<rect y="0.5" width="200" height="200" rx="100" fill="white"/>
</clipPath>
</defs>
</svg>
