<svg width="350" height="60" viewBox="0 0 350 60" fill="none" xmlns="http://www.w3.org/2000/svg">
<rect width="350" height="60" rx="10" fill="#5E7BC7"/>
<path d="M176.493 34.5798C177.759 32.8964 178.449 30.826 178.449 28.7243C178.449 23.3603 174.088 19 168.724 19C163.36 19 159 23.3603 159 28.7243C159 34.0884 163.36 38.4487 168.724 38.4487C170.826 38.4487 172.896 37.7586 174.58 36.4933L179.076 41L181 39.076L176.493 34.5798ZM173.607 33.7538C172.29 35.0295 170.554 35.73 168.724 35.73C166.894 35.73 165.086 34.9981 163.768 33.6702C162.44 32.3422 161.719 30.5856 161.719 28.7243C161.719 24.866 164.866 21.7186 168.724 21.7186C172.583 21.7186 175.73 24.866 175.73 28.7243C175.73 30.5542 175.029 32.2899 173.754 33.6074L173.607 33.7538Z" fill="white"/>
</svg>
